inDegrees=no
num_controls=7
num_derivatives=13
num_iterations=149
num_multipliers=7
num_parameters=0
num_slacks=7
num_states=26
objective=0.469836
objective_accelerations=0.062806
objective_balance=0.002072
objective_effort=0.020036
objective_height=0.375354
objective_ligament=0.009568
solver_duration=2047.401827
status=Solve_Succeeded
success=true
DataType=double
version=3
OpenSimVersion=4.5
endheader
time	/jointset/ground_pelvis/pelvis_tilt/value	/jointset/ground_pelvis/pelvis_tx/value	/jointset/ground_pelvis/pelvis_ty/value	/jointset/hip_l/hip_flexion_l/value	/jointset/hip_l/hip_adduction_l/value	/jointset/hip_l/hip_rotation_l/value	/jointset/back/lumbar_extension/value	/jointset/patellofemoral_l/patellar_flexion_l/value	/jointset/knee_l/knee_flexion_l/value	/jointset/knee_l/knee_adduction_l/value	/jointset/knee_l/knee_rotation_l/value	/jointset/ankle_l/ankle_angle_l/value	/jointset/subtalar_l/subtalar_angle_l/value	/jointset/ground_pelvis/pelvis_tilt/speed	/jointset/ground_pelvis/pelvis_tx/speed	/jointset/ground_pelvis/pelvis_ty/speed	/jointset/hip_l/hip_flexion_l/speed	/jointset/hip_l/hip_adduction_l/speed	/jointset/hip_l/hip_rotation_l/speed	/jointset/back/lumbar_extension/speed	/jointset/patellofemoral_l/patellar_flexion_l/speed	/jointset/knee_l/knee_flexion_l/speed	/jointset/knee_l/knee_adduction_l/speed	/jointset/knee_l/knee_rotation_l/speed	/jointset/ankle_l/ankle_angle_l/speed	/jointset/subtalar_l/subtalar_angle_l/speed	/forceset/tau_hip_flexion_l	/forceset/tau_hip_adduction_l	/forceset/tau_hip_rotation_l	/forceset/tau_knee_flexion_l	/forceset/tau_ankle_angle_l	/forceset/tau_subtalar_angle_l	/forceset/tau_lumbar_extension	lambda_cid13_p0	lambda_cid13_p1	lambda_cid13_p2	lambda_cid13_p3	lambda_cid13_p4	lambda_cid13_p5	lambda_cid14_p0	/jointset/ground_pelvis/pelvis_tilt/accel	/jointset/ground_pelvis/pelvis_tx/accel	/jointset/ground_pelvis/pelvis_ty/accel	/jointset/hip_l/hip_flexion_l/accel	/jointset/hip_l/hip_adduction_l/accel	/jointset/hip_l/hip_rotation_l/accel	/jointset/back/lumbar_extension/accel	/jointset/patellofemoral_l/patellar_flexion_l/accel	/jointset/knee_l/knee_flexion_l/accel	/jointset/knee_l/knee_adduction_l/accel	/jointset/knee_l/knee_rotation_l/accel	/jointset/ankle_l/ankle_angle_l/accel	/jointset/subtalar_l/subtalar_angle_l/accel	gamma_cid13_p0	gamma_cid13_p1	gamma_cid13_p2	gamma_cid13_p3	gamma_cid13_p4	gamma_cid13_p5	gamma_cid14_p0
1	-0.8280609083024414	-0.160083350803206	0.6135473004005052	2.019141748751054	-0.3357084680684918	0.04556314848869587	-0.4363299172679624	1.062858280444871	1.062858280445642	-0.003906184081907601	-0.1745253597900767	0.001545288425364222	0.08517393646365803	-0.1627454537257989	0.009242218541855758	0.03238490176681154	0.01151395489750216	-0.006195128997476589	-0.05679798075025667	-2.704616218554893e-06	-0.1685839947907009	-0.1685839947906833	-0.01122913380182103	-8.960190098659865e-06	-0.02968617985703196	-0.01445651958452102	-0.3790564829620833	-0.006630655287818171	-0.005679837598206819	-0.1342486286334066	0.1175707723757375	0.02204861265304595	0.2807876847183565	7.719350260670333	-7.529828952508423	-2.961295463722544	-8.282455881275119	-546.0429311101294	-70.89116459403627	-2.062278835039288	3.185798238852965	0.7728077507830381	1.799866178213641	-7.685492131024031	-0.2331335542878494	-1.284521313542386	-0.0256104756470502	-3.900698960590435	-3.900698960590498	-0.4151508054143927	-0.02343789155090679	0.3341340915886321	-0.1221950270419981	-1.162395647761039e-08	-5.533433641187517e-08	6.896457490718146e-09	2.177266358930949e-09	-9.740315305759312e-09	2.90025821167072e-08	-1.434635694648206e-08
1.01	-0.8295301621800256	-0.1599523801091908	0.6139608723936988	2.018874088100929	-0.335781295445128	0.04493157998637459	-0.4363298979234335	1.060977461646361	1.060977461646241	-0.004038606894532891	-0.1745254161975562	0.001264921493490516	0.0850239888920276	-0.13109749761446	0.01695555007137513	0.05031433698008485	-0.06502330158600701	-0.008362722270374164	-0.06951032780945006	8.580105423711345e-06	-0.2075683471151896	-0.2075683471151676	-0.01525383755442389	-1.952053791790713e-06	-0.02640587554505476	-0.01553083898663544	-0.3792454908233587	-0.006392680741587962	-0.005681630938029622	-0.1334020969999541	0.1170686659161653	0.02214928033710319	0.2808379034297621	7.587130228279182	-7.575800359211185	-2.924951083012836	-8.35453711309494	-545.7638888730407	-70.81738901109705	-2.101408044249984	3.1554659017214	0.7711394380941362	1.787205644108281	-7.634427198499347	-0.2074210906538235	-1.263797654505986	0.01479893364497829	-3.895587237221047	-3.895587237220346	-0.3959063154848791	0.01283042336822095	0.3221742734410604	-0.09971724222166473	-1.098952896752178e-08	-6.433962637808377e-08	5.127706775751805e-09	-4.371196599325725e-09	-1.279415962837249e-08	4.000767469095624e-08	-1.727915872969911e-08
1.02	-0.8306827021756067	-0.1597441673830689	0.61455328342927	2.017841737927673	-0.3358755685298658	0.04417304676298261	-0.4363297055341758	1.058707142550838	1.058707142549826	-0.004211231975745069	-0.1745253904722445	0.001016796739224515	0.08486336475729089	-0.09940267732523954	0.02469062496319371	0.068152710242321	-0.1414239497289173	-0.01048427061779678	-0.0821909249645702	3.190433007001128e-05	-0.2464840541933969	-0.2464840541933696	-0.01926958751909269	7.466368384381247e-06	-0.02323774433552567	-0.01659183220576999	-0.3794344986846341	-0.00615470619535653	-0.005683424277859615	-0.1325555653665009	0.1165665594565941	0.02224994802116208	0.2808881221411676	7.451135986968652	-7.622823783792925	-2.886482205289416	-8.447070582081263	-545.5719626980449	-70.74244736613618	-2.149161238211873	3.195171074429288	0.7771564232428803	1.781653788006206	-7.658170462904264	-0.2239245691928587	-1.278171332727734	-0.02320257504623516	-3.88696991133415	-3.886969911334034	-0.4133600478275863	-0.02295583437704657	0.3116994710990094	-0.119529790446026	-1.012922066464148e-08	-7.251207791955576e-08	3.352520490787386e-09	-1.06709018781223e-08	-1.567207188376958e-08	4.935784905856858e-08	-1.97403501211366e-08
1.03	-0.831518120014228	-0.1594584834494887	0.6153235368304699	2.016046278107585	-0.3359907988656918	0.04328786611180244	-0.4363292839392653	1.056048115371793	1.056048115371409	-0.00442392742514797	-0.1745252816295659	0.0007997533363841854	0.08469221358938568	-0.06768083574136848	0.03245078101632484	0.08587415102142615	-0.2176224128958971	-0.01254934398378589	-0.09483814400622047	4.970286072629137e-05	-0.2852995496754241	-0.2852995496753357	-0.02326222097623864	1.592018851571636e-05	-0.02019313640101801	-0.01763241944727906	-0.3791339407374755	-0.005866929951706538	-0.005674543409436891	-0.1317235774720116	0.1160661399100218	0.02238496508522233	0.2806362822574079	7.33824945272834	-7.688385191294504	-2.845544676665878	-8.550102365475013	-545.0067553968044	-70.68280034166854	-2.205818971308958	3.160695761898101	0.7761346540872039	1.763812649360273	-7.593847561155558	-0.1959198992292558	-1.256957199459623	0.01386429842553428	-3.875560121376851	-3.87556012136776	-0.3911422962818706	0.01299418187378837	0.2975071488576871	-0.0954131222924927	-9.266607455712282e-09	-8.067603110975494e-08	1.577268536741355e-09	-1.696806881325091e-08	-1.854818891399099e-08	5.869113650570502e-08	-2.219672916163756e-08
